<svg width="29" height="29" fill="none" xmlns="http://www.w3.org/2000/svg"><rect width="29" height="29" rx="14" fill="#929BFD"/><rect x="7.365" y="12.889" width="2.302" height="4.143" rx="1.151" fill="#000"/><rect x="19.333" y="12.889" width="2.302" height="4.143" rx="1.151" fill="#000"/><path d="M6.445 21.168a.982.982 0 011.526-.817c.33.22.76.22 1.09 0l.972-.648a1 1 0 011.11 0l.961.642a1 1 0 001.11 0l.962-.642a1 1 0 011.109 0l.962.642a1 1 0 001.11 0l.961-.642a1 1 0 011.11 0l.972.648c.33.22.76.22 1.09 0a.982.982 0 011.526.817v.392a1 1 0 01-.445.832l-1.072.715a1 1 0 01-1.11 0l-.961-.642a1 1 0 00-1.11 0l-.962.642a1 1 0 01-1.109 0l-.962-.642a1 1 0 00-1.11 0l-.961.642a1 1 0 01-1.11 0l-.962-.642a1 1 0 00-1.11 0l-.961.642a1 1 0 01-1.11 0l-1.071-.715a1 1 0 01-.445-.832v-.392z" fill="#000"/><rect x="21.002" y="9.206" width="3.452" height="1.295" rx=".647" transform="rotate(35.277 21.002 9.206)" fill="#000"/><rect width="3.452" height="1.295" rx=".647" transform="scale(-1 1) rotate(35.277 -18.418 -7.791)" fill="#000"/></svg>