<svg width="29" height="29" fill="none" xmlns="http://www.w3.org/2000/svg"><rect width="29" height="29" rx="14" fill="#3380FF"/><path d="M11.603 13.592a.82.82 0 10-1.008-1.286l-.595.546a1.175 1.175 0 01-1.587 0l-.595-.546a.82.82 0 10-1.009 1.287l.865.576a2.762 2.762 0 003.064 0l.865-.577zM22.19 13.592a.82.82 0 10-1.008-1.286l-.595.546a1.175 1.175 0 01-1.587 0l-.595-.546a.82.82 0 10-1.009 1.287l.866.576a2.762 2.762 0 003.064 0l.864-.577zM14.527 17.952c2.506 0 4.92 1.805 5.818 3.203.487.757-.335 1.093-1.183.794a14.036 14.036 0 00-4.635-.775c-2.061 0-3.714.439-4.764.822-.783.285-1.631.01-1.216-.711.812-1.414 3.396-3.333 5.98-3.333zM6.444 15.19l-.23-.92-.23.92-.604 2.116a.868.868 0 101.669 0l-.605-2.115z" fill="#000"/></svg>