<svg width="45" height="45" fill="none" xmlns="http://www.w3.org/2000/svg"><rect width="45" height="45" rx="14" fill="#E93A3A"/><rect x="12.143" y="15.714" width="3.571" height="6.429" rx="1.786" fill="#000"/><path d="M22.541 27.857c4.35 0 8.52 3.503 9.422 5.71.34.832-.61 1.127-1.444.79-1.56-.631-4.366-1.5-7.978-1.5-3.712 0-6.571.917-8.104 1.552-.77.318-1.737.111-1.49-.684.685-2.192 5.14-5.868 9.594-5.868z" fill="#000"/><rect x="15.117" y="16.48" width="7.143" height="2.009" rx="1.004" transform="rotate(-144.723 15.117 16.48)" fill="#000"/><rect width="3.571" height="6.429" rx="1.786" transform="matrix(-1 0 0 1 33.42 15.714)" fill="#000"/><rect width="7.143" height="2.009" rx="1.004" transform="scale(1 -1) rotate(35.277 41.138 39.637)" fill="#000"/></svg>