<svg width="45" height="45" fill="none" xmlns="http://www.w3.org/2000/svg"><rect width="45" height="45" rx="14" fill="#51E851"/><path d="M18.005 16.765c.354.236.566.633.566 1.058 0 1.107-1.315 1.686-2.13.938l-.924-.846a1.823 1.823 0 00-2.463 0l-.923.846c-.816.748-2.131.169-2.131-.938 0-.425.213-.822.566-1.058l1.342-.895a4.286 4.286 0 014.755 0l1.342.895zM34.434 16.765c.354.236.566.633.566 1.058 0 1.107-1.315 1.686-2.131.938l-.923-.846a1.823 1.823 0 00-2.463 0l-.923.846c-.816.748-2.131.169-2.131-.938 0-.425.212-.822.566-1.058l1.342-.895a4.286 4.286 0 014.755 0l1.342.895zM22.857 36.071c4.87 0 7.057-2.625 9.038-5.524.946-1.385-.093-3.404-1.77-3.404H15.59c-1.677 0-2.716 2.02-1.77 3.404 1.98 2.9 4.167 5.524 9.037 5.524z" fill="#000"/></svg>