<svg width="29" height="29" fill="none" xmlns="http://www.w3.org/2000/svg"><rect width="29" height="29" rx="14" fill="#51E851"/><path d="M11.603 10.804a.82.82 0 11-1.008 1.286L10 11.545a1.175 1.175 0 00-1.587 0l-.595.545a.82.82 0 11-1.009-1.286l.865-.577a2.762 2.762 0 013.064 0l.865.577zM22.19 10.804a.82.82 0 11-1.008 1.286l-.595-.545a1.175 1.175 0 00-1.587 0l-.595.545a.82.82 0 11-1.009-1.286l.866-.577a2.762 2.762 0 013.064 0l.864.577zM14.73 23.246c3.416 0 4.784-2.004 6.16-4.058.467-.697-.037-1.696-.875-1.696H9.445c-.838 0-1.342 1-.875 1.696 1.377 2.054 2.744 4.058 6.16 4.058z" fill="#000"/></svg>