<svg width="25" height="25" viewBox="0 0 25 25" fill="none" xmlns="http://www.w3.org/2000/svg">
<path d="M11.4609 5.46251V3.35791C17.2057 3.35791 21.8776 8.07852 21.8776 13.8809H19.7943C19.7943 9.23918 16.0557 5.46251 11.4609 5.46251ZM17.7109 13.8809H15.6276C15.6276 11.5606 13.7589 9.67168 11.4609 9.67168V7.5671C14.9078 7.5671 17.7109 10.3988 17.7109 13.8809ZM11.4609 11.7763V13.8809H13.5443C13.5443 12.7191 12.612 11.7763 11.4609 11.7763ZM14.5859 17.0378H18.7526C19.3286 17.0378 19.7943 17.5081 19.7943 18.0901V22.2992C19.7943 22.8811 19.3286 23.3515 18.7526 23.3515H13.5443C7.21615 23.3515 2.08594 18.169 2.08594 11.7763V6.51481C2.08594 5.93289 2.5526 5.46251 3.1276 5.46251H7.29427C7.87031 5.46251 8.33594 5.93289 8.33594 6.51481V10.724C8.33594 11.3059 7.87031 11.7763 7.29427 11.7763H6.2526C6.31823 15.9202 9.3776 19.1423 13.5443 19.1423V18.0901C13.5443 17.5081 14.0099 17.0378 14.5859 17.0378Z" fill="#323F92"/>
</svg>
