<svg width="39" height="39" viewBox="0 0 39 39" fill="none" xmlns="http://www.w3.org/2000/svg">
<rect width="39" height="39" rx="7" fill="#323F92"/>
<path d="M20 19C21.5913 19 23.1174 18.3679 24.2426 17.2426C25.3679 16.1174 26 14.5913 26 13C26 11.4087 25.3679 9.88258 24.2426 8.75736C23.1174 7.63214 21.5913 7 20 7C18.4087 7 16.8826 7.63214 15.7574 8.75736C14.6321 9.88258 14 11.4087 14 13C14 14.5913 14.6321 16.1174 15.7574 17.2426C16.8826 18.3679 18.4087 19 20 19ZM24 13C24 14.0609 23.5786 15.0783 22.8284 15.8284C22.0783 16.5786 21.0609 17 20 17C18.9391 17 17.9217 16.5786 17.1716 15.8284C16.4214 15.0783 16 14.0609 16 13C16 11.9391 16.4214 10.9217 17.1716 10.1716C17.9217 9.42143 18.9391 9 20 9C21.0609 9 22.0783 9.42143 22.8284 10.1716C23.5786 10.9217 24 11.9391 24 13ZM32 29C32 31 30 31 30 31H10C10 31 8 31 8 29C8 27 10 21 20 21C30 21 32 27 32 29ZM30 28.992C29.998 28.5 29.692 27.02 28.336 25.664C27.032 24.36 24.578 23 20 23C15.422 23 12.968 24.36 11.664 25.664C10.308 27.02 10.004 28.5 10 28.992H30Z" fill="white"/>
</svg>
