<svg width="39" height="39" viewBox="0 0 39 39" fill="none" xmlns="http://www.w3.org/2000/svg">
<rect width="39" height="39" rx="7" fill="#323F92"/>
<g clip-path="url(#clip0_3160_4998)">
<path d="M14.8175 17.071L14.165 19H12.5L15.293 11.5H17.219L20 19H18.2495L17.597 17.071H14.8175ZM17.2685 15.967L16.25 12.934H16.1765L15.158 15.967H17.2685Z" fill="white"/>
<path d="M8 10C8 9.20435 8.31607 8.44129 8.87868 7.87868C9.44129 7.31607 10.2044 7 11 7H21.5C22.2956 7 23.0587 7.31607 23.6213 7.87868C24.1839 8.44129 24.5 9.20435 24.5 10V14.5H29C29.7956 14.5 30.5587 14.8161 31.1213 15.3787C31.6839 15.9413 32 16.7044 32 17.5V28C32 28.7956 31.6839 29.5587 31.1213 30.1213C30.5587 30.6839 29.7956 31 29 31H18.5C17.7044 31 16.9413 30.6839 16.3787 30.1213C15.8161 29.5587 15.5 28.7956 15.5 28V23.5H11C10.2044 23.5 9.44129 23.1839 8.87868 22.6213C8.31607 22.0587 8 21.2956 8 20.5V10ZM11 8.5C10.6022 8.5 10.2206 8.65804 9.93934 8.93934C9.65804 9.22064 9.5 9.60218 9.5 10V20.5C9.5 20.8978 9.65804 21.2794 9.93934 21.5607C10.2206 21.842 10.6022 22 11 22H21.5C21.8978 22 22.2794 21.842 22.5607 21.5607C22.842 21.2794 23 20.8978 23 20.5V10C23 9.60218 22.842 9.22064 22.5607 8.93934C22.2794 8.65804 21.8978 8.5 21.5 8.5H11ZM21.707 23.4925C21.996 23.9435 22.311 24.3665 22.652 24.7615C21.53 25.624 20.1425 26.263 18.5 26.6995C18.767 27.025 19.1765 27.652 19.3325 28C21.02 27.4615 22.4525 26.734 23.6615 25.759C24.827 26.7565 26.27 27.5065 28.0565 27.967C28.256 27.586 28.6775 26.9575 29 26.632C27.3125 26.2525 25.9145 25.591 24.77 24.706C25.7915 23.5855 26.603 22.2295 27.2015 20.5705H29V19H24.5V20.5705H25.6475C25.1705 21.8365 24.5375 22.8895 23.7395 23.7655C23.5189 23.5308 23.3111 23.2845 23.117 23.0275C22.6934 23.2982 22.2085 23.4581 21.707 23.4925Z" fill="white"/>
</g>
<defs>
<clipPath id="clip0_3160_4998">
<rect width="24" height="24" fill="white" transform="translate(8 7)"/>
</clipPath>
</defs>
</svg>
