<svg width="39" height="39" viewBox="0 0 39 39" fill="none" xmlns="http://www.w3.org/2000/svg">
<rect width="39" height="39" rx="7" fill="#323F92"/>
<g clip-path="url(#clip0_3160_3956)">
<path d="M30.541 25.9312L19.999 31.2026L9.45703 25.9321L10.8203 25.2505L18.3945 29.0376V29.0386C19.3418 29.5113 20.4476 29.5407 21.4141 29.1265L21.6055 29.0376L29.1777 25.2495L30.541 25.9312ZM30.541 15.1714L19.999 20.4419L9.45703 15.1714L19.999 9.8999L30.541 15.1714Z" fill="white" stroke="white" stroke-width="1.8"/>
<path d="M31.4355 20.5505L20.1768 26.1804C20.1218 26.2075 20.0613 26.2224 20 26.2224C19.9383 26.2224 19.8775 26.2078 19.8223 26.1804H19.8232L8.56445 20.5505L10.8213 19.4226L18.5732 23.2996H18.5742C19.416 23.7196 20.3983 23.7465 21.2568 23.3787L21.4268 23.2996L29.1787 19.4226L31.4355 20.5505Z" fill="white" stroke="white"/>
</g>
<defs>
<clipPath id="clip0_3160_3956">
<rect width="24" height="24" fill="white" transform="translate(8 9)"/>
</clipPath>
</defs>
</svg>
