<svg width="39" height="39" viewBox="0 0 39 39" fill="none" xmlns="http://www.w3.org/2000/svg">
<rect width="39" height="39" rx="7" fill="#323F92"/>
<g clip-path="url(#clip0_3160_4037)">
<path d="M31.9822 7.58507C31.9465 7.42718 31.8607 7.28508 31.7376 7.17998C31.6149 7.0751 31.4616 7.01262 31.3006 7.00181C31.1395 6.991 30.9792 7.03244 30.8436 7.11998C26.4381 9.96698 20.4321 15.271 17.1681 19.276C16.3746 20.251 15.7791 21.451 15.3876 22.3795C15.2436 22.7215 15.1236 23.0335 15.0306 23.2915C14.8726 23.2555 14.6986 23.2315 14.5086 23.2195C13.6911 23.176 12.6816 23.455 11.8896 24.5635C11.5596 25.0255 11.2971 25.453 11.0706 25.8355L10.8951 26.1325C10.7406 26.395 10.6071 26.6245 10.4646 26.8405C10.1016 27.4 9.75512 27.784 9.16412 28.0795C8.94662 28.1875 8.61512 28.39 8.47262 28.7575C8.38885 28.9707 8.38671 29.2073 8.46662 29.422C8.53005 29.5898 8.6354 29.7385 8.77262 29.854C8.98004 30.0207 9.21725 30.1464 9.47162 30.2245C9.74737 30.3122 10.0291 30.3799 10.3146 30.427C11.8521 30.657 13.4195 30.5897 14.9316 30.229C16.4931 29.8375 17.1921 28.6075 17.4936 27.619C17.6436 27.124 17.7066 26.6575 17.7336 26.317C19.0839 25.8391 20.3031 25.051 21.2931 24.016C24.8211 20.311 29.6406 13.201 31.9356 8.05598C32.0016 7.90815 32.0179 7.74296 31.9822 7.58507Z" fill="white"/>
</g>
<defs>
<clipPath id="clip0_3160_4037">
<rect width="24" height="24" fill="white" transform="translate(8 7)"/>
</clipPath>
</defs>
</svg>
