<svg width="44" height="41" viewBox="0 0 44 41" fill="none" xmlns="http://www.w3.org/2000/svg">
<path d="M40.9991 13.61L30.4991 12.6266C29.4991 12.6266 28.7491 11.889 28.4991 11.1515L24.4991 1.56346C23.7491 -0.403316 20.7491 -0.403316 19.9991 1.56346L15.4991 11.3974C15.2491 12.1349 14.4991 12.6266 13.4991 12.8724L2.99914 13.61C0.749139 13.8558 -0.000861526 16.5601 1.49914 18.0352L9.49914 24.9189C10.2491 25.4106 10.4991 26.394 10.2491 27.3774L7.74914 37.4572C7.24914 39.6698 9.49914 41.1449 11.4991 40.1615L20.4991 34.7528C21.2491 34.2611 22.2491 34.2611 22.9991 34.7528L31.9991 40.1615C33.9991 41.3907 36.2491 39.6698 35.7491 37.4572L33.2491 27.3774C32.9991 26.394 33.2491 25.6565 33.9991 24.9189L41.9991 18.0352C44.2491 16.5601 43.2491 13.8558 40.9991 13.61ZM21.9991 29.3442L12.4991 34.9987L14.9991 24.4273L6.74914 17.2977L17.7491 16.3143L21.9991 6.48041L26.2491 16.3143L37.2491 17.2977L28.9991 24.4273L31.4991 34.9987L21.9991 29.3442Z" fill="#BDC5D1"/>
<path d="M21.9991 29.3442L12.4991 34.9987L14.9991 24.4273L6.74914 17.2977L17.7491 16.3143L21.9991 6.48041L26.2491 16.3143L37.2491 17.2977L28.9991 24.4273L31.4991 34.9987L21.9991 29.3442Z" fill="#BDC5D1"/>
</svg>
