<svg width="25" height="26" viewBox="0 0 25 26" fill="none" xmlns="http://www.w3.org/2000/svg">
<path d="M12.4999 2.5835C6.74992 2.5835 2.08325 7.25016 2.08325 13.0002C2.08325 18.7502 6.74992 23.4168 12.4999 23.4168C18.2499 23.4168 22.9166 18.7502 22.9166 13.0002C22.9166 7.25016 18.2499 2.5835 12.4999 2.5835ZM11.4583 21.2606C7.34367 20.7502 4.16659 17.2502 4.16659 13.0002C4.16659 12.3543 4.24992 11.7397 4.38534 11.1356L9.37492 16.1252V17.1668C9.37492 18.3127 10.3124 19.2502 11.4583 19.2502V21.2606ZM18.6458 18.6147C18.3749 17.771 17.6041 17.1668 16.6666 17.1668H15.6249V14.0418C15.6249 13.4689 15.1562 13.0002 14.5833 13.0002H8.33325V10.9168H10.4166C10.9895 10.9168 11.4583 10.4481 11.4583 9.87516V7.79183H13.5416C14.6874 7.79183 15.6249 6.85433 15.6249 5.7085V5.28141C18.677 6.521 20.8333 9.51058 20.8333 13.0002C20.8333 15.1668 19.9999 17.1356 18.6458 18.6147Z" fill="#323F92"/>
</svg>
