<svg width="24" height="24" viewBox="0 0 24 24" fill="none" xmlns="http://www.w3.org/2000/svg">
<path fill-rule="evenodd" clip-rule="evenodd" d="M14.5096 22H14.5414C15.3248 22 15.9736 22 16.5042 21.9562C17.0573 21.9104 17.5655 21.8122 18.0467 21.5685C18.7053 21.2351 19.2587 20.7258 19.6457 20.0973C19.9286 19.6379 20.0686 19.1397 20.1601 18.5923C20.2479 18.0671 20.3018 17.4207 20.3668 16.6399L20.8862 10.4069L21.3598 10.8016C21.7841 11.1551 22.4147 11.0978 22.7682 10.6735C23.1218 10.2493 23.0645 9.6187 22.6402 9.26514L15.9859 3.71985C15.2151 3.07744 14.5667 2.53709 13.9889 2.16544C13.3759 1.77122 12.7437 1.49951 12 1.49951C11.2563 1.49951 10.6241 1.77122 10.0112 2.16544C9.43336 2.53708 8.78499 3.07743 8.01416 3.71983L1.35984 9.26514C0.935563 9.6187 0.87824 10.2493 1.23181 10.6735C1.58537 11.0978 2.21594 11.1551 2.64021 10.8016L3.1138 10.4069L3.63321 16.6398C3.69826 17.4206 3.75212 18.0671 3.83992 18.5923C3.93143 19.1397 4.07148 19.6379 4.35431 20.0973C4.74134 20.7258 5.29476 21.2351 5.9533 21.5685C6.43454 21.8122 6.94272 21.9104 7.49581 21.9562C8.02642 22 8.67514 22 9.45858 22H9.49042C9.50427 22.0001 9.51818 22 9.53215 21.9995C9.64873 21.9958 9.76029 21.9722 9.8635 21.9319C10.144 21.8224 10.363 21.5899 10.454 21.3007C10.4873 21.1954 10.5034 21.0829 10.4995 20.9667C10.499 20.9524 10.4982 20.9381 10.4972 20.9238L10.1974 16.4269C10.1278 15.3841 10.9549 14.5 12 14.5C13.0451 14.5 13.8722 15.3841 13.8027 16.4269L13.5022 20.9335C13.4655 21.4846 13.8824 21.9611 14.4335 21.9978C14.4591 21.9995 14.4844 22.0002 14.5096 22ZM11.0931 3.84757C10.6316 4.14433 10.0779 4.60344 9.24723 5.2957L4.98799 8.84508C4.99168 8.86876 4.99455 8.89273 4.99657 8.91698L5.62287 16.4325C5.69223 17.2649 5.74 17.8286 5.81254 18.2625C5.88291 18.6834 5.96463 18.898 6.05736 19.0486C6.25088 19.3629 6.52759 19.6175 6.85686 19.7843C7.01466 19.8642 7.23532 19.9278 7.66062 19.963C7.87968 19.9811 8.13049 19.9904 8.43081 19.9951L8.2018 16.5599C8.05532 14.3628 9.79801 12.5 12 12.5C14.202 12.5 15.9447 14.3628 15.7983 16.5599L15.5692 19.9951C15.8696 19.9904 16.1204 19.9811 16.3394 19.963C16.7647 19.9278 16.9854 19.8642 17.1432 19.7843C17.4725 19.6175 17.7492 19.3629 17.9427 19.0486C18.0354 18.898 18.1171 18.6834 18.1875 18.2625C18.26 17.8286 18.3078 17.2649 18.3772 16.4325L19.0035 8.91698C19.0055 8.89273 19.0084 8.86876 19.0121 8.84508L14.7528 5.2957C13.9221 4.60344 13.3684 4.14434 12.907 3.84757C12.4689 3.5658 12.2157 3.49951 12 3.49951C11.7843 3.49951 11.5312 3.5658 11.0931 3.84757Z" fill="#323F92"/>
</svg>
