<svg width="41" height="40" viewBox="0 0 41 40" fill="none" xmlns="http://www.w3.org/2000/svg">
<g clip-path="url(#clip0_2863_1850)">
<path d="M20.5 3.60156C25.9773 3.60156 26.626 3.625 28.7801 3.71875C30.782 3.80469 31.8631 4.13281 32.5838 4.40625C33.5367 4.76563 34.2254 5.20313 34.9381 5.89844C35.6588 6.60156 36.0992 7.26563 36.4676 8.19531C36.7479 8.89844 37.0842 9.96094 37.1723 11.9062C37.2684 14.0156 37.2924 14.6484 37.2924 19.9844C37.2924 25.3281 37.2684 25.9609 37.1723 28.0625C37.0842 30.0156 36.7479 31.0703 36.4676 31.7734C36.0992 32.7031 35.6508 33.375 34.9381 34.0703C34.2174 34.7734 33.5367 35.2031 32.5838 35.5625C31.8631 35.8359 30.774 36.1641 28.7801 36.25C26.618 36.3438 25.9693 36.3672 20.5 36.3672C15.0227 36.3672 14.374 36.3438 12.2199 36.25C10.218 36.1641 9.13692 35.8359 8.41621 35.5625C7.46328 35.2031 6.77461 34.7656 6.06191 34.0703C5.34121 33.3672 4.90078 32.7031 4.53242 31.7734C4.25215 31.0703 3.91582 30.0078 3.82773 28.0625C3.73164 25.9531 3.70762 25.3203 3.70762 19.9844C3.70762 14.6406 3.73164 14.0078 3.82773 11.9062C3.91582 9.95312 4.25215 8.89844 4.53242 8.19531C4.90078 7.26563 5.34922 6.59375 6.06191 5.89844C6.78262 5.19531 7.46328 4.76563 8.41621 4.40625C9.13692 4.13281 10.226 3.80469 12.2199 3.71875C14.374 3.625 15.0227 3.60156 20.5 3.60156ZM20.5 0C14.9346 0 14.2379 0.0234375 12.0518 0.117188C9.87363 0.210938 8.37617 0.554687 7.07891 1.04688C5.72559 1.5625 4.58047 2.24219 3.44336 3.35938C2.29824 4.46875 1.60156 5.58594 1.07305 6.89844C0.568555 8.17188 0.216211 9.625 0.120117 11.75C0.0240234 13.8906 0 14.5703 0 20C0 25.4297 0.0240234 26.1094 0.120117 28.2422C0.216211 30.3672 0.568555 31.8281 1.07305 33.0938C1.60156 34.4141 2.29824 35.5312 3.44336 36.6406C4.58047 37.75 5.72559 38.4375 7.0709 38.9453C8.37617 39.4375 9.86563 39.7812 12.0438 39.875C14.2299 39.9688 14.9266 39.9922 20.492 39.9922C26.0574 39.9922 26.7541 39.9688 28.9402 39.875C31.1184 39.7812 32.6158 39.4375 33.9131 38.9453C35.2584 38.4375 36.4035 37.75 37.5406 36.6406C38.6777 35.5312 39.3824 34.4141 39.9029 33.1016C40.4074 31.8281 40.7598 30.375 40.8559 28.25C40.952 26.1172 40.976 25.4375 40.976 20.0078C40.976 14.5781 40.952 13.8984 40.8559 11.7656C40.7598 9.64063 40.4074 8.17969 39.9029 6.91406C39.3984 5.58594 38.7018 4.46875 37.5566 3.35938C36.4195 2.25 35.2744 1.5625 33.9291 1.05469C32.6238 0.5625 31.1344 0.21875 28.9563 0.125C26.7621 0.0234375 26.0654 0 20.5 0Z" fill="white"/>
<path d="M20.5 9.72656C14.6863 9.72656 9.96973 14.3281 9.96973 20C9.96973 25.6719 14.6863 30.2734 20.5 30.2734C26.3137 30.2734 31.0303 25.6719 31.0303 20C31.0303 14.3281 26.3137 9.72656 20.5 9.72656ZM20.5 26.6641C16.7283 26.6641 13.6693 23.6797 13.6693 20C13.6693 16.3203 16.7283 13.3359 20.5 13.3359C24.2717 13.3359 27.3307 16.3203 27.3307 20C27.3307 23.6797 24.2717 26.6641 20.5 26.6641Z" fill="white"/>
<path d="M33.9051 9.32032C33.9051 10.6484 32.8 11.7188 31.4467 11.7188C30.0854 11.7188 28.9883 10.6406 28.9883 9.32032C28.9883 7.99219 30.0934 6.92188 31.4467 6.92188C32.8 6.92188 33.9051 8 33.9051 9.32032Z" fill="white"/>
</g>
<defs>
<clipPath id="clip0_2863_1850">
<rect width="41" height="40" fill="white"/>
</clipPath>
</defs>
</svg>
