<svg width="41" height="40" viewBox="0 0 41 40" fill="none" xmlns="http://www.w3.org/2000/svg">
<g clip-path="url(#clip0_2863_1849)">
<path d="M37.9734 0H3.0266C2.22389 0 1.45407 0.311096 0.88647 0.864849C0.318873 1.4186 0 2.16965 0 2.95278V37.0472C0 37.8303 0.318873 38.5814 0.88647 39.1352C1.45407 39.6889 2.22389 40 3.0266 40H37.9734C38.7761 40 39.5459 39.6889 40.1135 39.1352C40.6811 38.5814 41 37.8303 41 37.0472V2.95278C41 2.16965 40.6811 1.4186 40.1135 0.864849C39.5459 0.311096 38.7761 0 37.9734 0ZM12.2203 34.075H6.05604V14.9722H12.2203V34.075ZM9.13389 12.325C8.43466 12.3212 7.75227 12.1153 7.17284 11.7335C6.5934 11.3516 6.14289 10.8109 5.87817 10.1795C5.61344 9.54808 5.54636 8.85432 5.68539 8.18576C5.82442 7.5172 6.16333 6.90379 6.65935 6.42297C7.15537 5.94214 7.78627 5.61544 8.47242 5.4841C9.15858 5.35276 9.86924 5.42266 10.5147 5.68498C11.1602 5.9473 11.7115 6.39028 12.0992 6.95802C12.4869 7.52576 12.6935 8.19282 12.6929 8.875C12.6995 9.33172 12.6118 9.78506 12.435 10.208C12.2582 10.6309 11.9959 11.0148 11.6638 11.3368C11.3316 11.6587 10.9365 11.9121 10.5019 12.0819C10.0672 12.2517 9.60198 12.3344 9.13389 12.325ZM34.9411 34.0917H28.7797V23.6556C28.7797 20.5778 27.4387 19.6278 25.7076 19.6278C23.8797 19.6278 22.0859 20.9722 22.0859 23.7333V34.0917H15.9217V14.9861H21.8496V17.6333H21.9293C22.5244 16.4583 24.6085 14.45 27.7889 14.45C31.2283 14.45 34.944 16.4417 34.944 22.275L34.9411 34.0917Z" fill="white"/>
</g>
<defs>
<clipPath id="clip0_2863_1849">
<rect width="41" height="40" fill="white"/>
</clipPath>
</defs>
</svg>
