<svg width="39" height="39" viewBox="0 0 39 39" fill="none" xmlns="http://www.w3.org/2000/svg">
<rect width="39" height="39" rx="7" fill="#323F92"/>
<g clip-path="url(#clip0_3160_4036)">
<path fill-rule="evenodd" clip-rule="evenodd" d="M10.8272 8.76648C11.0897 8.50441 11.4049 8.30111 11.7518 8.17006C12.0988 8.03901 12.4697 7.98319 12.8398 8.00631C13.21 8.02943 13.5711 8.13095 13.899 8.30416C14.227 8.47736 14.5144 8.71829 14.7422 9.01098L17.4347 12.47C17.9282 13.1045 18.1022 13.931 17.9072 14.711L17.0867 17.996C17.0446 18.1661 17.047 18.3443 17.0938 18.5132C17.1406 18.6822 17.2301 18.8362 17.3537 18.9605L21.0392 22.646C21.1637 22.7699 21.3179 22.8595 21.4872 22.9063C21.6564 22.9531 21.8348 22.9554 22.0052 22.913L25.2887 22.0925C25.6737 21.9968 26.0753 21.9896 26.4635 22.0714C26.8516 22.1533 27.2162 22.322 27.5297 22.565L30.9887 25.256C32.2322 26.2235 32.3462 28.061 31.2332 29.1725L29.6822 30.7235C28.5722 31.8335 26.9132 32.321 25.3667 31.7765C21.4077 30.3853 17.8135 28.1191 14.8517 25.1465C11.8793 22.1851 9.61306 18.5914 8.22173 14.633C7.67873 13.088 8.16623 11.4275 9.27623 10.3175L10.8272 8.76648Z" fill="white"/>
</g>
<defs>
<clipPath id="clip0_3160_4036">
<rect width="24" height="24" fill="white" transform="translate(8 8)"/>
</clipPath>
</defs>
</svg>
