<svg width="45" height="45" fill="none" xmlns="http://www.w3.org/2000/svg"><rect width="45" height="45" rx="14" fill="#929BFD"/><rect x="11.428" y="20" width="3.571" height="6.429" rx="1.786" fill="#000"/><rect x="30" y="20" width="3.571" height="6.429" rx="1.786" fill="#000"/><path d="M10 31.868a1 1 0 011.555-.832l1.105.737a1 1 0 001.109 0l2.105-1.403a1 1 0 011.11 0l2.104 1.403a1 1 0 001.11 0l2.104-1.403a1 1 0 011.11 0l2.105 1.403a1 1 0 001.11 0l2.104-1.403a1 1 0 011.11 0l2.104 1.403a1 1 0 001.11 0l1.105-.737a1 1 0 011.554.832v1.882a1 1 0 01-.445.833l-2.214 1.476a1 1 0 01-1.11 0l-2.105-1.404a1 1 0 00-1.109 0l-2.105 1.404a1 1 0 01-1.11 0l-2.104-1.404a1 1 0 00-1.11 0l-2.104 1.404a1 1 0 01-1.11 0l-2.105-1.404a1 1 0 00-1.11 0L13.77 36.06a1 1 0 01-1.11 0l-2.214-1.476A1 1 0 0110 33.75v-1.882z" fill="#000"/><rect x="32.589" y="14.286" width="5.357" height="2.009" rx="1.004" transform="rotate(35.277 32.589 14.286)" fill="#000"/><rect width="5.357" height="2.009" rx="1.004" transform="scale(-1 1) rotate(35.277 -28.58 -12.09)" fill="#000"/></svg>