<svg width="45" height="45" fill="none" xmlns="http://www.w3.org/2000/svg"><rect width="45" height="45" rx="14" fill="#3380FF"/><path d="M18.005 21.092c.354-.236.567-.633.567-1.058 0-1.107-1.316-1.686-2.131-.938l-.924.846a1.823 1.823 0 01-2.463 0l-.923-.846c-.816-.748-2.13-.169-2.13.938 0 .425.212.822.565 1.058l1.342.894c1.44.96 3.316.96 4.755 0l1.342-.894zM34.434 21.092c.354-.236.566-.633.566-1.058 0-1.107-1.315-1.686-2.131-.938l-.923.846a1.823 1.823 0 01-2.463 0l-.923-.846c-.816-.748-2.131-.169-2.131.938 0 .425.212.822.566 1.058l1.342.894c1.44.96 3.315.96 4.755 0l1.342-.894zM22.541 27.857c4.35 0 8.52 3.503 9.422 5.71.34.832-.61 1.127-1.444.79-1.56-.631-4.366-1.5-7.978-1.5-3.712 0-6.571.917-8.104 1.552-.77.318-1.737.111-1.49-.684.685-2.192 5.14-5.868 9.594-5.868zM10 23.572l-.357-1.429-.357 1.429-.938 3.283a1.347 1.347 0 102.59 0L10 23.572z" fill="#000"/></svg>