<svg width="29" height="29" fill="none" xmlns="http://www.w3.org/2000/svg"><rect width="29" height="29" rx="14" fill="#E93A3A"/><path d="M14.24 17.952c2.507 0 4.92 1.805 5.82 3.204.486.756-.336 1.093-1.184.794a14.036 14.036 0 00-4.635-.776c-2.061 0-3.714.44-4.764.822-.783.285-1.631.011-1.216-.71.812-1.415 3.396-3.334 5.98-3.334z" fill="#000"/><rect x="7.841" y="10.127" width="2.302" height="4.143" rx="1.151" fill="#000"/><rect x="9.758" y="10.62" width="4.603" height="1.295" rx=".647" transform="rotate(-144.723 9.758 10.62)" fill="#000"/><rect width="2.302" height="4.143" rx="1.151" transform="matrix(-1 0 0 1 21.553 10.127)" fill="#000"/><rect width="4.603" height="1.295" rx=".647" transform="scale(1 -1) rotate(35.277 26.519 25.57)" fill="#000"/></svg>